HIERARCHY
ROOT Root
{
  OFFSET 0.0 0.0 0.0
  CHANNELS 6 Xposition Yposition Zposition Zrotation Yrotation Xrotation
  JOINT Hips
  {
    OFFSET 0.0 100.0 0.0
    CHANNELS 6 Xposition Yposition Zposition Zrotation Yrotation Xrotation
    JOINT Spine1
    {
      OFFSET 5.003913 -0.037094 -0.013727
      CHANNELS 3 Zrotation Yrotation Xrotation
      JOINT Spine2
      {
        OFFSET 7.125363 -1e-06 0.0
        CHANNELS 3 Zrotation Yrotation Xrotation
        JOINT Chest
        {
          OFFSET 7.594027 1e-06 0.0
          CHANNELS 3 Zrotation Yrotation Xrotation
          JOINT Neck1
          {
            OFFSET 26.313086 -0.460272 -0.181672
            CHANNELS 3 Zrotation Yrotation Xrotation
            JOINT Neck2
            {
              OFFSET 8.045911 0.0 0.0
              CHANNELS 3 Zrotation Yrotation Xrotation
              JOINT Head
              {
                OFFSET 6.432774 0.0 0.0
                CHANNELS 3 Zrotation Yrotation Xrotation
                JOINT HeadEnd
                {
                  OFFSET 16.169773 0.06451 0.00362
                  CHANNELS 3 Zrotation Yrotation Xrotation
                }
                JOINT Jaw
                {
                  OFFSET 0.108741 3.12938 0.002639
                  CHANNELS 3 Zrotation Yrotation Xrotation
                }
                JOINT LeftEye
                {
                  OFFSET 4.45173 8.166359 3.206392
                  CHANNELS 3 Zrotation Yrotation Xrotation
                }
                JOINT RightEye
                {
                  OFFSET 4.436895 8.135758 -3.222429
                  CHANNELS 3 Zrotation Yrotation Xrotation
                }
              }
            }
          }
          JOINT LeftShoulder
          {
            OFFSET 23.218927 5.195579 1.621656
            CHANNELS 3 Zrotation Yrotation Xrotation
            JOINT LeftArm
            {
              OFFSET 15.902118 2e-06 -2e-06
              CHANNELS 3 Zrotation Yrotation Xrotation
              JOINT LeftForeArm
              {
                OFFSET 28.739307 0.0 -1e-06
                CHANNELS 3 Zrotation Yrotation Xrotation
                JOINT LeftHand
                {
                  OFFSET 27.093981 -4e-06 0.0
                  CHANNELS 3 Zrotation Yrotation Xrotation
                  JOINT LeftHandThumb1
                  {
                    OFFSET 2.276781 3.380274 0.83384
                    CHANNELS 3 Zrotation Yrotation Xrotation
                    JOINT LeftHandThumb2
                    {
                      OFFSET 4.705309 -1e-06 -1e-06
                      CHANNELS 3 Zrotation Yrotation Xrotation
                      JOINT LeftHandThumb3
                      {
                        OFFSET 2.798515 0.0 3e-06
                        CHANNELS 3 Zrotation Yrotation Xrotation
                        JOINT LeftHandThumbEnd
                        {
                          OFFSET 3.180793 4e-06 -4e-06
                          CHANNELS 3 Zrotation Yrotation Xrotation
                        }
                      }
                    }
                  }
                  JOINT LeftHandIndex1
                  {
                    OFFSET 3.247786 2.352677 0.137192
                    CHANNELS 3 Zrotation Yrotation Xrotation
                    JOINT LeftHandIndex2
                    {
                      OFFSET 6.367095 1e-06 0.0
                      CHANNELS 3 Zrotation Yrotation Xrotation
                      JOINT LeftHandIndex3
                      {
                        OFFSET 3.662364 0.0 0.0
                        CHANNELS 3 Zrotation Yrotation Xrotation
                        JOINT LeftHandIndex4
                        {
                          OFFSET 2.329242 4e-06 -4e-06
                          CHANNELS 3 Zrotation Yrotation Xrotation
                          JOINT LeftHandIndexEnd
                          {
                            OFFSET 2.767823 1e-06 0.0
                            CHANNELS 3 Zrotation Yrotation Xrotation
                          }
                        }
                      }
                    }
                  }
                  JOINT LeftHandMiddle1
                  {
                    OFFSET 3.163612 0.945023 -0.406112
                    CHANNELS 3 Zrotation Yrotation Xrotation
                    JOINT LeftHandMiddle2
                    {
                      OFFSET 6.276789 3e-06 0.0
                      CHANNELS 3 Zrotation Yrotation Xrotation
                      JOINT LeftHandMiddle3
                      {
                        OFFSET 4.35652 -1e-06 4e-06
                        CHANNELS 3 Zrotation Yrotation Xrotation
                        JOINT LeftHandMiddle4
                        {
                          OFFSET 2.996877 0.0 8e-06
                          CHANNELS 3 Zrotation Yrotation Xrotation
                          JOINT LeftHandMiddleEnd
                          {
                            OFFSET 2.323256 3e-06 -4e-06
                            CHANNELS 3 Zrotation Yrotation Xrotation
                          }
                        }
                      }
                    }
                  }
                  JOINT LeftHandRing1
                  {
                    OFFSET 2.882606 -0.309162 0.107445
                    CHANNELS 3 Zrotation Yrotation Xrotation
                    JOINT LeftHandRing2
                    {
                      OFFSET 6.033198 0.0 4e-06
                      CHANNELS 3 Zrotation Yrotation Xrotation
                      JOINT LeftHandRing3
                      {
                        OFFSET 4.350578 3e-06 0.0
                        CHANNELS 3 Zrotation Yrotation Xrotation
                        JOINT LeftHandRing4
                        {
                          OFFSET 2.651321 2e-06 -7e-06
                          CHANNELS 3 Zrotation Yrotation Xrotation
                          JOINT LeftHandRingEnd
                          {
                            OFFSET 1.937663 1e-06 -4e-06
                            CHANNELS 3 Zrotation Yrotation Xrotation
                          }
                        }
                      }
                    }
                  }
                  JOINT LeftHandPinky1
                  {
                    OFFSET 2.865315 -1.525436 0.575687
                    CHANNELS 3 Zrotation Yrotation Xrotation
                    JOINT LeftHandPinky2
                    {
                      OFFSET 5.54936 1e-06 -8e-06
                      CHANNELS 3 Zrotation Yrotation Xrotation
                      JOINT LeftHandPinky3
                      {
                        OFFSET 3.070974 0.0 -4e-06
                        CHANNELS 3 Zrotation Yrotation Xrotation
                        JOINT LeftHandPinky4
                        {
                          OFFSET 1.549672 1e-06 0.0
                          CHANNELS 3 Zrotation Yrotation Xrotation
                          JOINT LeftHandPinkyEnd
                          {
                            OFFSET 1.952123 0.0 0.0
                            CHANNELS 3 Zrotation Yrotation Xrotation
                          }
                        }
                      }
                    }
                  }
                }
              }
            }
          }
          JOINT RightShoulder
          {
            OFFSET 23.161716 5.296122 -1.380114
            CHANNELS 3 Zrotation Yrotation Xrotation
            JOINT RightArm
            {
              OFFSET -16.027195 -2e-06 1.1e-05
              CHANNELS 3 Zrotation Yrotation Xrotation
              JOINT RightForeArm
              {
                OFFSET -28.736639 4e-06 2e-06
                CHANNELS 3 Zrotation Yrotation Xrotation
                JOINT RightHand
                {
                  OFFSET -27.133619 6e-06 0.0
                  CHANNELS 3 Zrotation Yrotation Xrotation
                  JOINT RightHandThumb1
                  {
                    OFFSET -2.274328 -3.351035 -0.83067
                    CHANNELS 3 Zrotation Yrotation Xrotation
                    JOINT RightHandThumb2
                    {
                      OFFSET -4.703594 -3e-06 2e-06
                      CHANNELS 3 Zrotation Yrotation Xrotation
                      JOINT RightHandThumb3
                      {
                        OFFSET -2.794935 -4e-06 -3e-06
                        CHANNELS 3 Zrotation Yrotation Xrotation
                        JOINT RightHandThumbEnd
                        {
                          OFFSET -3.183852 4e-06 1e-06
                          CHANNELS 3 Zrotation Yrotation Xrotation
                        }
                      }
                    }
                  }
                  JOINT RightHandIndex1
                  {
                    OFFSET -3.253496 -2.33755 -0.127667
                    CHANNELS 3 Zrotation Yrotation Xrotation
                    JOINT RightHandIndex2
                    {
                      OFFSET -6.344434 0.0 0.0
                      CHANNELS 3 Zrotation Yrotation Xrotation
                      JOINT RightHandIndex3
                      {
                        OFFSET -3.654871 0.0 -8e-06
                        CHANNELS 3 Zrotation Yrotation Xrotation
                        JOINT RightHandIndex4
                        {
                          OFFSET -2.327586 -1e-06 0.0
                          CHANNELS 3 Zrotation Yrotation Xrotation
                          JOINT RightHandIndexEnd
                          {
                            OFFSET -2.770001 3e-06 8e-06
                            CHANNELS 3 Zrotation Yrotation Xrotation
                          }
                        }
                      }
                    }
                  }
                  JOINT RightHandMiddle1
                  {
                    OFFSET -3.168223 -0.944764 0.411762
                    CHANNELS 3 Zrotation Yrotation Xrotation
                    JOINT RightHandMiddle2
                    {
                      OFFSET -6.266691 -1e-06 -4e-06
                      CHANNELS 3 Zrotation Yrotation Xrotation
                      JOINT RightHandMiddle3
                      {
                        OFFSET -4.348901 0.0 0.0
                        CHANNELS 3 Zrotation Yrotation Xrotation
                        JOINT RightHandMiddle4
                        {
                          OFFSET -3.00024 2e-06 -4e-06
                          CHANNELS 3 Zrotation Yrotation Xrotation
                          JOINT RightHandMiddleEnd
                          {
                            OFFSET -2.321477 -4e-06 -4e-06
                            CHANNELS 3 Zrotation Yrotation Xrotation
                          }
                        }
                      }
                    }
                  }
                  JOINT RightHandRing1
                  {
                    OFFSET -2.885654 0.293261 -0.119232
                    CHANNELS 3 Zrotation Yrotation Xrotation
                    JOINT RightHandRing2
                    {
                      OFFSET -6.032835 -1e-06 -4e-06
                      CHANNELS 3 Zrotation Yrotation Xrotation
                      JOINT RightHandRing3
                      {
                        OFFSET -4.33881 0.0 -4e-06
                        CHANNELS 3 Zrotation Yrotation Xrotation
                        JOINT RightHandRing4
                        {
                          OFFSET -2.654903 -4e-06 -4e-06
                          CHANNELS 3 Zrotation Yrotation Xrotation
                          JOINT RightHandRingEnd
                          {
                            OFFSET -1.935122 0.0 4e-06
                            CHANNELS 3 Zrotation Yrotation Xrotation
                          }
                        }
                      }
                    }
                  }
                  JOINT RightHandPinky1
                  {
                    OFFSET -2.866241 1.503904 -0.60527
                    CHANNELS 3 Zrotation Yrotation Xrotation
                    JOINT RightHandPinky2
                    {
                      OFFSET -5.553177 -2e-06 0.0
                      CHANNELS 3 Zrotation Yrotation Xrotation
                      JOINT RightHandPinky3
                      {
                        OFFSET -3.062664 -1e-06 -4e-06
                        CHANNELS 3 Zrotation Yrotation Xrotation
                        JOINT RightHandPinky4
                        {
                          OFFSET -1.546529 2e-06 4e-06
                          CHANNELS 3 Zrotation Yrotation Xrotation
                          JOINT RightHandPinkyEnd
                          {
                            OFFSET -1.952341 0.0 -4e-06
                            CHANNELS 3 Zrotation Yrotation Xrotation
                          }
                        }
                      }
                    }
                  }
                }
              }
            }
          }
        }
      }
    }
    JOINT LeftLeg
    {
      OFFSET -8.443107 2.567604 10.043214
      CHANNELS 3 Zrotation Yrotation Xrotation
      JOINT LeftShin
      {
        OFFSET 43.229198 1e-06 -1e-06
        CHANNELS 3 Zrotation Yrotation Xrotation
        JOINT LeftFoot
        {
          OFFSET 42.298611 1e-06 1e-06
          CHANNELS 3 Zrotation Yrotation Xrotation
          JOINT LeftToeBase
          {
            OFFSET 14.165858 1e-06 0.0
            CHANNELS 3 Zrotation Yrotation Xrotation
            JOINT LeftToeEnd
            {
              OFFSET 6.7141 -0.234461 0.0
              CHANNELS 3 Zrotation Yrotation Xrotation
            }
          }
        }
      }
    }
    JOINT RightLeg
    {
      OFFSET -8.303923 2.592729 -10.047278
      CHANNELS 3 Zrotation Yrotation Xrotation
      JOINT RightShin
      {
        OFFSET -43.369682 0.0 1e-06
        CHANNELS 3 Zrotation Yrotation Xrotation
        JOINT RightFoot
        {
          OFFSET -42.260784 4e-06 2e-06
          CHANNELS 3 Zrotation Yrotation Xrotation
          JOINT RightToeBase
          {
            OFFSET -14.222245 -2e-06 -1e-06
            CHANNELS 3 Zrotation Yrotation Xrotation
            JOINT RightToeEnd
            {
              OFFSET -6.660062 0.232574 -2e-06
              CHANNELS 3 Zrotation Yrotation Xrotation
            }
          }
        }
      }
    }
  }
}
MOTION
Frames: 4
Frame Time: 0.03333333333333333
0.0 0.0 0.0 0.0 -0.0 0.0 -1.823544 48.925072 -1.364336 90.610939 -49.75219 88.484695 12.081845 -0.649304 -0.280964 -4.127264 -1.08497 -0.124155 28.103174 -0.547277 -2.345179 17.913176 -1.015483 2.28416 -2.966841 -0.72454 -0.114955 -34.354462 1.724583 -0.818221 5e-06 -0.0 -0.0 -0.108979 -0.046519 0.005365 0.115352 -0.105083 0.051997 0.059459 0.013055 -0.034642 -28.374504 -76.311638 35.513371 81.621986 -1.408609 -21.551352 9.223022 -1.185649 0.062699 14.676964 71.753456 16.764986 17.636625 -26.322729 52.41119 -19.466665 -14.3956 29.410393 -2e-06 -8.774822 -1e-06 16.721199 -17.397184 6.003238 -0.609776 -1.795654 -3.889328 -4.80709 -11.046813 -2.93785 5e-06 -20.976019 -2e-06 -5.019971 -25.03356 -4.03188 6e-06 -0.0 1e-06 -10.634534 -5.68697 -3.565586 10.573275 -17.922951 -3.113902 2e-06 -13.821209 0.0 -0.501776 -31.181505 -4.027017 -11.086281 -59.663765 7.671401 -13.982713 -7.150196 -2.875041 13.77273 -8.401493 -3.218242 0.347735 -34.211544 0.771653 -0.963028 -17.73337 2.621019 0.0 -0.0 0.0 -17.34642 -20.095217 -4.20178 21.757561 -1.638377 3.866427 1e-06 -6.338823 1e-06 -1.697589 -22.591743 -6.194008 0.0 -4e-06 -0.0 -172.388031 -75.812157 -0.799655 84.660866 7.16975 -25.894602 11.465398 -0.267705 0.007586 -38.243843 62.58437 -43.098473 22.182114 -20.375898 49.933327 -16.701817 -16.743528 28.476534 -0.0 -12.690601 -1e-06 16.180635 -17.628408 2.486336 -0.10592 -1.513855 -4.275882 -5.039041 -5.612873 -2.953556 3e-06 -11.020528 -2e-06 -6.111297 -15.895338 -3.840471 -2e-06 -0.0 -1e-06 -10.283373 -5.680289 -4.341838 11.028296 -11.302406 -2.372634 -1.384271 -14.238585 -6.320121 -0.625438 -26.924198 -3.827601 -3.828892 -48.502419 -4.336939 -13.708526 -7.363479 -3.720939 18.141153 -14.05274 -3.242676 5e-06 -18.787275 -3e-06 -0.429712 -8.456045 2.555504 0.0 -1e-06 0.0 -15.923536 -20.09449 -5.473584 30.419214 -7.190823 1.735925 2e-06 -8.162929 0.0 -1.861904 -22.861475 -6.167943 1e-06 -1e-06 -1e-06 109.781975 -8.627651 10.150249 131.646194 -0.289438 0.308618 -103.454788 13.910531 12.6076 -48.275436 2.016985 1.499567 -1.0 -0.0 1e-06 -43.765465 -1.512978 6.62972 108.245773 -0.345747 -0.053583 -99.683006 9.956013 22.370321 -52.46365 1.334364 1.397303 -1.000003 2e-06 1e-06 
0.0 0.0 0.0 0.0 -0.0 0.0 -1.731527 48.84914 -0.902854 90.308586 -49.921001 88.374352 11.991269 -0.579171 -0.291431 -4.223157 -1.033944 -0.040188 28.025581 -0.584472 -2.146275 17.793095 -1.188034 2.089463 -2.945525 -0.631453 -0.111574 -34.203873 1.784895 -0.820672 7e-06 -0.0 0.0 -0.117787 -0.037354 -0.002604 0.154105 -0.11134 0.049587 0.100803 0.039337 -0.051453 -28.908304 -76.486809 36.367088 81.614296 -1.526037 -21.754389 9.10875 -1.199738 0.051042 16.626915 71.743431 18.820566 17.636621 -26.322727 52.411182 -19.466656 -14.395598 29.410385 -1e-06 -8.774819 -1e-06 16.673225 -17.404694 6.029484 -0.609776 -1.795654 -3.889327 -4.807086 -11.04681 -2.937849 4e-06 -20.976011 -0.0 -5.019969 -25.033548 -4.031878 7e-06 -1e-06 -1e-06 -10.634531 -5.686969 -3.565586 10.573272 -17.922947 -3.113901 2e-06 -13.821206 1e-06 -0.501777 -31.181498 -4.027014 -10.873618 -59.722015 7.555531 -13.982711 -7.150198 -2.87504 13.772728 -8.401492 -3.218241 0.347733 -34.21154 0.771655 -0.963028 -17.733366 2.621019 0.0 -0.0 -0.0 -17.346413 -20.095211 -4.201779 21.757555 -1.638375 3.866426 1e-06 -6.338823 1e-06 -1.697588 -22.591738 -6.194005 0.0 -4e-06 -1e-06 -172.48703 -75.745392 -0.545885 85.068024 7.019216 -26.262829 11.251855 -0.21998 0.012056 -37.75626 62.748436 -43.118587 22.182121 -20.375891 49.933311 -16.701817 -16.74353 28.476532 -2e-06 -12.690605 -2e-06 16.177526 -17.644321 2.535148 -0.10592 -1.513855 -4.275879 -5.039042 -5.612872 -2.953557 4e-06 -11.020525 -3e-06 -6.111297 -15.89533 -3.840469 -0.0 -0.0 -2e-06 -10.283373 -5.680288 -4.341837 11.028296 -11.302404 -2.372633 -1.384271 -14.238586 -6.320122 -0.625439 -26.924194 -3.8276 -3.826034 -48.659245 -4.219186 -13.708527 -7.363476 -3.720938 18.141151 -14.052739 -3.242675 4e-06 -18.787271 -2e-06 -0.429712 -8.456043 2.555501 -0.0 -1e-06 0.0 -15.923536 -20.094484 -5.473584 30.419214 -7.190824 1.735927 5e-06 -8.162925 -3e-06 -1.861906 -22.861473 -6.167943 1e-06 -1e-06 -1e-06 110.358307 -9.05028 9.99162 131.208572 -0.270416 0.307127 -103.067169 13.844746 12.912068 -48.566532 1.994427 1.426408 -1.000001 0.0 1e-06 -43.430382 -1.215185 6.618127 107.577072 -0.4392 -0.094067 -99.014786 10.049063 22.712265 -52.117695 1.324849 1.397682 -1.000003 0.0 1e-06 
0.0 0.0 0.0 0.0 -0.0 0.0 -1.626101 48.801716 -0.335394 90.153694 -50.089703 88.229294 11.874065 -0.556518 -0.273912 -4.30156 -0.972246 0.032512 27.941917 -0.572188 -2.004219 17.680651 -1.319056 1.939318 -2.93751 -0.631439 -0.156994 -34.130001 1.738962 -0.833931 7e-06 -0.0 0.0 -0.116335 -0.050622 0.001448 0.15372 -0.132989 0.049611 0.104663 0.035328 -0.046712 -29.064098 -76.553307 36.794323 81.61602 -1.76215 -21.727417 9.170285 -1.239682 0.044141 17.254978 71.760544 19.470007 17.636627 -26.322721 52.411179 -19.466654 -14.395592 29.410378 -1e-06 -8.774819 -2e-06 16.6266 -17.398443 6.04292 -0.609776 -1.795654 -3.889326 -4.807088 -11.046805 -2.93785 4e-06 -20.976009 -1e-06 -5.019969 -25.033548 -4.031879 6e-06 0.0 0.0 -10.634532 -5.686968 -3.565587 10.573271 -17.922947 -3.113899 2e-06 -13.821205 1e-06 -0.501777 -31.181488 -4.027016 -10.755496 -59.748741 7.49016 -13.982711 -7.150196 -2.875042 13.772724 -8.401489 -3.218239 0.347733 -34.211536 0.771655 -0.963028 -17.733366 2.621019 -0.0 0.0 -0.0 -17.346413 -20.095213 -4.201781 21.757553 -1.638373 3.866428 1e-06 -6.338821 1e-06 -1.697589 -22.591738 -6.194005 0.0 -5e-06 -2e-06 -172.323975 -75.597366 -0.590175 85.290001 6.79109 -26.684837 11.089552 -0.277994 0.010122 -37.367649 63.116959 -42.936878 22.182116 -20.375887 49.933315 -16.701803 -16.743523 28.476517 -2e-06 -12.6906 -2e-06 16.160822 -17.595158 2.565463 -0.10592 -1.513855 -4.27588 -5.039037 -5.612868 -2.953556 4e-06 -11.020517 -3e-06 -6.111293 -15.895328 -3.840471 -1e-06 -0.0 -2e-06 -10.283369 -5.680286 -4.341839 11.028291 -11.302401 -2.372632 -1.384268 -14.238575 -6.32012 -0.625437 -26.924171 -3.827598 -3.803541 -48.67857 -4.127108 -13.708517 -7.363474 -3.72094 18.141144 -14.052732 -3.242673 6e-06 -18.787266 -1e-06 -0.429712 -8.456039 2.555502 0.0 0.0 0.0 -15.923531 -20.094475 -5.473586 30.419205 -7.190823 1.735928 4e-06 -8.162922 -0.0 -1.861901 -22.86146 -6.167942 0.0 -0.0 -1e-06 111.116959 -9.366083 9.643951 130.66362 -0.272084 0.309712 -102.975143 13.610963 13.213207 -48.831573 1.98539 1.397191 -0.999999 0.0 1e-06 -42.961731 -1.047571 6.695795 106.759712 -0.493082 -0.097572 -98.443069 10.071805 22.880743 -51.988235 1.311148 1.399258 -1.000003 1e-06 0.0 
0.0 0.0 0.0 0.0 -0.0 0.0 -1.523801 48.777119 0.155489 90.042343 -50.296421 88.108673 11.752685 -0.546694 -0.254343 -4.371346 -0.925738 0.076099 27.816422 -0.482849 -1.902318 17.568962 -1.469145 1.829778 -2.928212 -0.672407 -0.212736 -34.155186 1.65375 -0.846452 7e-06 0.0 0.0 -0.113612 -0.069328 0.009522 0.138163 -0.155637 0.05017 0.092414 0.020517 -0.033108 -29.395082 -76.592857 37.321697 81.651237 -2.130562 -21.752707 9.352061 -1.279828 0.039779 17.847952 71.913322 20.276377 17.636633 -26.322733 52.411182 -19.46666 -14.395591 29.410381 -2e-06 -8.774819 -2e-06 16.59239 -17.38426 6.04276 -0.609777 -1.795653 -3.889326 -4.807089 -11.046809 -2.93785 3e-06 -20.976017 0.0 -5.019971 -25.033554 -4.031879 6e-06 0.0 2e-06 -10.634533 -5.686969 -3.565587 10.573272 -17.922951 -3.113899 2e-06 -13.821211 1e-06 -0.501779 -31.181505 -4.027014 -10.753836 -59.768814 7.463176 -13.982712 -7.150198 -2.875041 13.772728 -8.401489 -3.21824 0.347732 -34.211544 0.771657 -0.963029 -17.733368 2.621019 -0.0 -0.0 0.0 -17.346418 -20.095215 -4.201783 21.757557 -1.638376 3.866429 1e-06 -6.338822 1e-06 -1.69759 -22.591747 -6.194005 0.0 -3e-06 -2e-06 -172.319946 -75.410332 -0.593711 85.483612 6.416945 -27.014673 11.03632 -0.340711 0.007021 -37.130981 63.494354 -42.864021 22.182114 -20.375883 49.933296 -16.701809 -16.743528 28.476519 -2e-06 -12.690601 -2e-06 16.152321 -17.549299 2.574828 -0.105921 -1.513856 -4.27588 -5.039039 -5.612869 -2.953556 3e-06 -11.02052 -3e-06 -6.1113 -15.89533 -3.840469 -0.0 -1e-06 -1e-06 -10.283368 -5.680288 -4.341838 11.028294 -11.302401 -2.372632 -1.384271 -14.238579 -6.320119 -0.625438 -26.924179 -3.8276 -3.777423 -48.67725 -4.06769 -13.708524 -7.363475 -3.720939 18.141146 -14.052732 -3.242674 6e-06 -18.787266 -1e-06 -0.429711 -8.456039 2.555503 -0.0 -1e-06 0.0 -15.923532 -20.094481 -5.473584 30.419207 -7.190821 1.735928 4e-06 -8.162925 -1e-06 -1.861906 -22.861467 -6.167942 1e-06 -0.0 -1e-06 111.689461 -9.547024 9.338224 130.181244 -0.275708 0.307203 -102.893517 13.370417 13.501116 -49.207462 1.986632 1.387686 -0.999999 1e-06 2e-06 -42.622776 -0.937579 6.796311 106.060623 -0.516417 -0.106079 -98.087135 9.960522 22.954315 -52.007038 1.297809 1.401464 -1.000003 0.0 -0.0 
